<?xml version="1.0" encoding="UTF-8"?>
<!-- Generator: visioncortex VTracer 0.6.4 -->
<svg version="1.1" xmlns="http://www.w3.org/2000/svg" width="400" height="400">
<path d="M0 0 C3.44763458 2.02901083 6.39934099 4.37404085 9.38671875 7.0078125 C10.52915754 7.99700731 11.67239996 8.98527468 12.81640625 9.97265625 C13.38327148 10.46362793 13.95013672 10.95459961 14.53417969 11.46044922 C16.98266324 13.55207168 19.49832239 15.55749508 22.01171875 17.5703125 C23.74679198 19.00067766 25.47640833 20.43770079 27.19921875 21.8828125 C27.93011719 22.49125 28.66101563 23.0996875 29.4140625 23.7265625 C42.40613842 35.49673493 44.72063489 52.32267326 46.19921875 68.8828125 C47.57980469 68.83060547 47.57980469 68.83060547 48.98828125 68.77734375 C67.70898716 68.37700279 83.19399959 73.017001 97.19921875 85.8828125 C102.98160077 91.4944969 107.0781229 97.71438338 111.203125 104.60546875 C119.05525448 117.49771264 128.09927674 125.80008757 140.73828125 133.703125 C143.88143614 135.6691205 146.96059475 137.71337587 150.01171875 139.8203125 C150.80191406 140.36558594 151.59210938 140.91085938 152.40625 141.47265625 C154.19921875 142.8828125 154.19921875 142.8828125 155.19921875 144.8828125 C155.62505612 149.31152113 155.5443387 152.68248423 152.7890625 156.33984375 C145.5262048 163.38856314 136.32922876 167.95162302 126.26171875 168.2578125 C118.22333498 168.11861971 110.28660097 166.98617812 102.34594727 165.77490234 C93.07102214 164.48324413 83.89624709 164.73004006 75.9765625 170.28515625 C64.85196907 180.28506551 62.91722737 195.89206849 62.07226562 210.00292969 C62.0005822 211.41900316 61.93100601 212.83518487 61.86352539 214.25146484 C60.94456358 233.49016166 56.85135543 253.60003354 44.19921875 268.8828125 C43.20921875 269.2128125 42.21921875 269.5428125 41.19921875 269.8828125 C39.54296875 268.80078125 39.54296875 268.80078125 37.69921875 267.0703125 C36.99152344 266.42191406 36.28382813 265.77351563 35.5546875 265.10546875 C33.93082504 263.57316736 32.3085215 262.03921278 30.6875 260.50390625 C23.96745129 254.23513088 16.95870546 248.78456335 9.19921875 243.8828125 C8.6160791 243.5130127 8.03293945 243.14321289 7.43212891 242.76220703 C-18.4544066 226.63995241 -49.34176768 218.3020447 -79.69921875 217.19140625 C-82.76630518 216.88624274 -85.02153107 216.178755 -87.80078125 214.8828125 C-87.72265625 212.5625 -87.72265625 212.5625 -86.80078125 209.8828125 C-84.48868211 208.65257793 -82.50635595 207.82101252 -80.05078125 207.0078125 C-78.67487312 206.50338415 -77.30119687 205.99283103 -75.9296875 205.4765625 C-75.23633301 205.21617187 -74.54297852 204.95578125 -73.82861328 204.6875 C-64.41546634 200.95216021 -56.39120368 195.49502388 -48.80078125 188.8828125 C-47.97964844 188.19445312 -47.15851563 187.50609375 -46.3125 186.796875 C-37.56041219 179.25619593 -30.43925153 170.56489263 -24.07421875 160.97265625 C-23.64426605 160.32589432 -23.21431335 159.67913239 -22.77133179 159.01277161 C-18.48906503 152.50850194 -14.5303628 145.82751472 -10.6104126 139.10079956 C-1.94657797 124.25077543 7.16790988 109.85114045 17.19921875 95.8828125 C15.69818681 92.20445951 13.59365348 90.29114628 10.57421875 87.7578125 C-2.90552626 75.84458018 -16.00315717 57.25205919 -17.23828125 38.828125 C-17.73720017 25.13447183 -16.55274495 11.87509039 -7.23828125 1.0703125 C-4.54104758 -1.15783705 -3.21502828 -1.28242411 0 0 Z " fill="#422B20" transform="translate(159.80078125,26.1171875)"/>
<path d="M0 0 C2.75398279 2.75398279 1.31172625 10.75982579 1.31689453 14.45141602 C0.88514419 49.35123547 -16.12575661 79.36841858 -40.46484375 103.4375 C-49.96491943 112.30629026 -60.51459266 118.93395388 -71.9375 125 C-73.28775269 125.72195557 -73.28775269 125.72195557 -74.6652832 126.45849609 C-79.06243353 128.73783021 -82.95509647 130.74087173 -88 131 C-89 130 -89 130 -89.1640625 126.41015625 C-88.75116666 96.47520805 -66.03427976 66.03427976 -46 46 C-49.4589296 47.56475387 -52.39154193 49.20923093 -55.25 51.6875 C-58 54 -58 54 -60 54 C-60.33 54.99 -60.66 55.98 -61 57 C-62.49609375 58.4375 -62.49609375 58.4375 -64.4375 60 C-85.81941878 78.29468987 -99.3582873 105.2560925 -106.04296875 132.26953125 C-107 135 -107 135 -110 137 C-114.30716731 137.64852235 -118.65122411 137.79807496 -123 138 C-124.32064453 138.06380859 -124.32064453 138.06380859 -125.66796875 138.12890625 C-160.38851154 138.93636073 -194.62037232 124.71112803 -219.80834961 101.09765625 C-238.43453997 83.22552466 -257.31215021 55.74986187 -259 29 C-258.29931973 24.29931973 -258.29931973 24.29931973 -257 23 C-223.60201465 19.23276521 -183.90253993 38.05027614 -158.4609375 58.1640625 C-145.85096612 68.3991222 -136.46551331 81.27438842 -132 97 C-131.78515625 100.8828125 -131.78515625 100.8828125 -132 104 C-132.33 104.33 -132.66 104.66 -133 105 C-138.77553567 104.58971605 -143.51330367 103.33194536 -148.8125 101.0625 C-149.5346167 100.75820068 -150.2567334 100.45390137 -151.00073242 100.14038086 C-164.38949192 94.36261729 -177.09598252 87.41821441 -189 79 C-189.97324219 78.34644531 -190.94648438 77.69289063 -191.94921875 77.01953125 C-192.87347656 76.39433594 -193.79773438 75.76914062 -194.75 75.125 C-195.56984375 74.57070313 -196.3896875 74.01640625 -197.234375 73.4453125 C-197.81703125 72.96835937 -198.3996875 72.49140625 -199 72 C-199 71.34 -199 70.68 -199 70 C-200.32 69.34 -201.64 68.68 -203 68 C-203.34822166 70.94874635 -203.34822166 70.94874635 -201.71484375 72.32421875 C-201.12832031 72.77410156 -200.54179687 73.22398437 -199.9375 73.6875 C-197.29126399 75.83921079 -195.0517417 78.00090788 -192.875 80.625 C-175.84570385 100.49251218 -152.30374462 117.61107573 -125.625 119.75 C-123.75073085 119.84841031 -121.87581602 119.93768053 -120 120 C-120.165 119.113125 -120.33 118.22625 -120.5 117.3125 C-123.85229568 92.51537167 -116.16745562 65.42804237 -101.375 45.5 C-99.928005 43.65770451 -98.47123731 41.82299424 -97 40 C-96.30583984 39.09314453 -96.30583984 39.09314453 -95.59765625 38.16796875 C-78.77873558 16.70544036 -48.75099532 3.41436509 -22.17480469 0.18603516 C-14.8148419 -0.44354406 -7.37127086 -0.38292316 0 0 Z " fill="#7E8342" transform="translate(333,239)"/>
<path d="M0 0 C36.41269702 0.42505094 75.68062199 17.41549372 102.125 42.1875 C110.9564052 51.6622526 120.16447297 64.79747514 120.90234375 78.1328125 C120.6875 81.25 120.6875 81.25 119.6875 82.25 C113.91196433 81.83971605 109.17419633 80.58194536 103.875 78.3125 C103.1528833 78.00820068 102.4307666 77.70390137 101.68676758 77.39038086 C88.29800808 71.61261729 75.59151748 64.66821441 63.6875 56.25 C62.71425781 55.59644531 61.74101562 54.94289063 60.73828125 54.26953125 C59.81402344 53.64433594 58.88976562 53.01914062 57.9375 52.375 C57.11765625 51.82070313 56.2978125 51.26640625 55.453125 50.6953125 C54.57914063 49.97988281 54.57914063 49.97988281 53.6875 49.25 C53.6875 48.59 53.6875 47.93 53.6875 47.25 C52.3675 46.59 51.0475 45.93 49.6875 45.25 C49.33927834 48.19874635 49.33927834 48.19874635 50.97265625 49.57421875 C51.85244141 50.24904297 51.85244141 50.24904297 52.75 50.9375 C55.39623601 53.08921079 57.6357583 55.25090788 59.8125 57.875 C79.34696363 80.66520756 103.76764969 94.79421182 133.6875 98.25 C133.6875 99.57 133.6875 100.89 133.6875 102.25 C134.6775 102.25 135.6675 102.25 136.6875 102.25 C136.85765625 102.81589844 137.0278125 103.38179688 137.203125 103.96484375 C137.44546875 104.69832031 137.6878125 105.43179688 137.9375 106.1875 C138.16953125 106.91839844 138.4015625 107.64929688 138.640625 108.40234375 C139.5421987 110.42137791 139.5421987 110.42137791 141.671875 111.12890625 C142.33703125 111.16886719 143.0021875 111.20882812 143.6875 111.25 C144.3475 110.59 145.0075 109.93 145.6875 109.25 C145.3125 111.1875 145.3125 111.1875 144.6875 113.25 C129.0250704 121.0812148 100.6343147 114.03207636 84.81738281 108.96191406 C48.71384215 96.89429318 20.65250116 72.12057719 3.5078125 38.21875 C-1.39134548 27.95285798 -8.27083782 12.63863382 -5.3125 1.25 C-3.73129226 -0.33120774 -2.20593245 0.04116826 0 0 Z " fill="#8C6F43" transform="translate(80.3125,261.75)"/>
<path d="M0 0 C5.00966271 8.29185551 4.25674456 21.19070898 2 30.4375 C-0.08094677 36.18208544 -3.89374424 40.56878875 -8 45 C-8.65484375 45.7321875 -9.3096875 46.464375 -9.984375 47.21875 C-14.54756512 51.81844564 -14.54756512 51.81844564 -18.1875 52.2734375 C-20.54908759 52.05203866 -22.70659002 51.6018726 -25 51 C-26.45763426 50.66362286 -27.91597576 50.33029604 -29.375 50 C-30.10460937 49.82597656 -30.83421875 49.65195313 -31.5859375 49.47265625 C-35.30164335 48.7451475 -39.03898652 48.50290231 -42.8125 48.24609375 C-45 48 -45 48 -46 47 C-46.80234028 36.36899125 -43.99119515 25.19470843 -37 17 C-30.1459665 10.95533667 -22.16316029 6.86857291 -14 2.875 C-12.78050659 2.2706311 -12.78050659 2.2706311 -11.53637695 1.65405273 C-4.06504403 -1.84281996 -4.06504403 -1.84281996 0 0 Z " fill="#412A20" transform="translate(259,39)"/>
<path d="M0 0 C0.99 0 1.98 0 3 0 C3 0.66 3 1.32 3 2 C4.65 2.33 6.3 2.66 8 3 C8 3.99 8 4.98 8 6 C6.37675914 6.22162329 4.751279 6.42689803 3.125 6.625 C1.76761719 6.79902344 1.76761719 6.79902344 0.3828125 6.9765625 C-0.40351563 6.98429688 -1.18984375 6.99203125 -2 7 C-2.66 6.34 -3.32 5.68 -4 5 C-2.68 4.67 -1.36 4.34 0 4 C0 2.68 0 1.36 0 0 Z " fill="#4A3429" transform="translate(245,185)"/>
<path d="M0 0 C6.44070471 -0.10655578 12.62641289 0.03794912 19 1 C19 1.33 19 1.66 19 2 C12.09811029 2.83854735 5.88577812 3.01593448 -1 2 C-0.67 1.34 -0.34 0.68 0 0 Z " fill="#A89373" transform="translate(76,262)"/>
<path d="M0 0 C0.99 0 1.98 0 3 0 C2.34 5.94 1.68 11.88 1 18 C0.67 18 0.34 18 0 18 C-0.83288874 11.74692761 -1.03863773 6.23182639 0 0 Z " fill="#4B382D" transform="translate(221,216)"/>
<path d="M0 0 C4.455 0.99 4.455 0.99 9 2 C9 2.33 9 2.66 9 3 C7.43883181 3.33951619 5.87598662 3.67132544 4.3125 4 C3.00732422 4.2784375 3.00732422 4.2784375 1.67578125 4.5625 C-0.93712964 4.98972047 -3.35813038 5.07616201 -6 5 C-5.34 4.01 -4.68 3.02 -4 2 C-2.68 2 -1.36 2 0 2 C0 1.34 0 0.68 0 0 Z " fill="#4D3529" transform="translate(284,189)"/>
<path d="M0 0 C0.33 0.66 0.66 1.32 1 2 C1.66 2 2.32 2 3 2 C1.47291037 5.43595166 -0.59927045 8.11912454 -3 11 C-2.53199289 6.94393835 -2.12046792 3.53411321 0 0 Z " fill="#757936" transform="translate(251,338)"/>
<path d="M0 0 C0.33 0.66 0.66 1.32 1 2 C4.63 2 8.26 2 12 2 C12 2.99 12 3.98 12 5 C10.5629191 5.05422947 9.12524538 5.09289723 7.6875 5.125 C6.88699219 5.14820313 6.08648437 5.17140625 5.26171875 5.1953125 C3 5 3 5 0 3 C0 2.01 0 1.02 0 0 Z " fill="#4D372B" transform="translate(74,238)"/>
<path d="M0 0 C-0.33 1.32 -0.66 2.64 -1 4 C-6.75 5.125 -6.75 5.125 -9 4 C-9 3.34 -9 2.68 -9 2 C-3.375 0 -3.375 0 0 0 Z " fill="#9B9E6C" transform="translate(290,281)"/>
<path d="M0 0 C0 2.31 0 4.62 0 7 C1.32 7.33 2.64 7.66 4 8 C1.69 8 -0.62 8 -3 8 C-3 5.69 -3 3.38 -3 1 C-1 0 -1 0 0 0 Z " fill="#4B3428" transform="translate(216,77)"/>
<path d="M0 0 C0 0.99 0 1.98 0 3 C-3.97977076 3.8441938 -7.97007218 4.44687265 -12 5 C-8.45976076 2.63984051 -4.36489861 0 0 0 Z " fill="#4F3C34" transform="translate(88,231)"/>
<path d="M0 0 C3.16115776 1.36983503 3.9927092 1.9890638 6 5 C4.68 5 3.36 5 2 5 C1.34 3.35 0.68 1.7 0 0 Z " fill="#4F3B32" transform="translate(279,145)"/>
</svg>
